<svg id="Capa_1" enable-background="new 0 0 512.001 512.001" height="512" viewBox="0 0 512.001 512.001" width="512" xmlns="http://www.w3.org/2000/svg"><g><g><g><path d="m452.877 187.721-1.312-126.803c0-13.403-10.308-24.268-23.466-24.735-3.704-.132-7.307.557-10.596 1.989-2.01-11.414-11.997-20.112-23.978-20.112-4.565 0-8.842 1.263-12.498 3.458-4.026-7.233-11.537-12.173-20.315-12.484-4.797-.176-9.402 1.029-13.396 3.434-4.031-7.215-11.532-12.141-20.297-12.452-6.671-.24-12.99 2.181-17.787 6.811-4.798 4.631-7.441 10.853-7.441 17.521v15.19c0 4.142 3.358 7.5 7.5 7.5s7.5-3.358 7.5-7.5v-15.19c0-2.56 1.015-4.949 2.857-6.727 1.841-1.776 4.278-2.696 6.837-2.614 4.962.177 8.999 4.548 8.999 9.744v103.292c0 4.142 3.358 7.5 7.5 7.5s7.5-3.358 7.5-7.5c0 0 0-94.164 0-94.678 0-2.56 1.015-4.948 2.857-6.727 1.841-1.777 4.274-2.702 6.837-2.614 4.962.176 8.999 4.547 8.999 9.744v94.274c0 4.142 3.358 7.5 7.5 7.5s7.5-3.358 7.5-7.5c0 0 0-85.122 0-85.636 0-5.154 4.193-9.347 9.347-9.347 5.153 0 9.346 4.193 9.346 9.347v85.636c0 4.142 3.358 7.5 7.5 7.5s7.5-3.358 7.5-7.5c0 0 0-67.188 0-67.528 0-2.56 1.015-4.949 2.857-6.727 1.841-1.776 4.276-2.695 6.837-2.614 4.962.176 8.999 4.548 8.999 9.822l1.312 126.881c.208 20.179-5.833 39.558-17.473 56.042-.896 1.27-1.376 2.785-1.374 4.339l.436 256.256c.007 4.138 3.363 7.487 7.5 7.487h.013c4.142-.007 7.494-3.371 7.487-7.513l-.432-253.913c12.571-18.634 19.078-40.312 18.845-62.853z"/><path d="m208.422 395.245.162 109.271c.009 4.137 3.364 7.484 7.5 7.484h.016c4.142-.009 7.493-3.374 7.484-7.516l-.204-98.559c4.617 2.549 9.508 4.66 14.627 6.255l.76 92.381c.034 4.121 3.385 7.438 7.498 7.438h.063c4.142-.034 7.472-3.419 7.438-7.561l-.733-89.155c2.789.299 5.618.461 8.485.461h22.302c4.142 0 7.5-3.358 7.5-7.5s-3.358-7.5-7.5-7.5h-22.302c-35.379 0-64.162-28.783-64.162-64.162v-84.297c0-6.404 4.589-11.926 10.676-12.845 3.63-.548 7.303.509 10.079 2.9 2.777 2.393 4.368 5.867 4.363 9.536l-.035 56.662c-.002 3.19 2.014 6.032 5.026 7.084l4.16 1.454c17.788 6.214 32.181 19.744 39.489 37.12 1.606 3.818 6.002 5.612 9.821 4.006 3.818-1.606 5.612-6.003 4.006-9.821-8.832-20.997-26.113-37.41-47.499-45.156l.032-51.335c.009-7.483-3.014-14.6-8.343-19.782l.016-47.762c0-2.56 1.015-4.949 2.857-6.727 1.841-1.776 4.271-2.696 6.837-2.614 4.962.177 8.999 4.548 8.999 9.744v103.292c0 4.142 3.358 7.5 7.5 7.5s7.5-3.358 7.5-7.5c0 0 0-94.163 0-94.678 0-2.56 1.015-4.949 2.857-6.727 1.84-1.777 4.277-2.702 6.837-2.614 4.962.176 8.999 4.547 8.999 9.744v94.274c0 4.142 3.358 7.5 7.5 7.5s7.5-3.358 7.5-7.5c0 0 0-85.122 0-85.635 0-5.154 4.193-9.347 9.347-9.347s9.347 4.193 9.347 9.347v85.636c0 4.142 3.358 7.5 7.5 7.5s7.5-3.358 7.5-7.5c0 0 0-67.015 0-67.528 0-2.56 1.015-4.949 2.857-6.727 1.841-1.776 4.271-2.698 6.837-2.614 4.962.176 8.999 4.548 9 9.822l.588 56.851c.042 4.116 3.392 7.422 7.498 7.422h.079c4.142-.043 7.465-3.435 7.422-7.577l-.227-21.946h7.184c4.142 0 7.5-3.358 7.5-7.5s-3.358-7.5-7.5-7.5h-7.339l-.205-19.827c0-13.403-10.308-24.268-23.466-24.735-3.704-.131-7.306.557-10.596 1.989-2.01-11.414-11.997-20.112-23.978-20.112-4.566 0-8.842 1.263-12.498 3.458-2.015-3.619-4.901-6.663-8.381-8.842v-80.389c0-6.404 4.589-11.926 10.676-12.845 3.629-.55 7.302.509 10.079 2.9 2.777 2.393 4.367 5.866 4.363 9.536l-.035 56.662c-.002 3.19 2.014 6.032 5.026 7.084l4.16 1.454c17.788 6.215 32.181 19.745 39.488 37.12 1.207 2.869 3.988 4.594 6.917 4.594.969 0 1.955-.189 2.904-.588 3.818-1.606 5.611-6.003 4.006-9.821-8.832-20.999-26.11-37.41-47.498-45.156l.031-51.335c.01-8.042-3.479-15.666-9.573-20.915s-14.152-7.567-22.109-6.368c-13.36 2.018-23.436 13.916-23.436 27.677v76.839c-3.682.324-7.197 1.456-10.33 3.343-3.747-6.706-10.492-11.428-18.461-12.312l-.528-49.238c0-13.403-10.308-24.268-23.466-24.735-3.706-.131-7.307.557-10.596 1.989-2.01-11.414-11.997-20.112-23.978-20.112-4.565 0-8.842 1.264-12.498 3.459-4.026-7.234-11.536-12.173-20.315-12.485-4.793-.176-9.402 1.029-13.396 3.434-4.031-7.215-11.532-12.141-20.297-12.452-6.668-.243-12.99 2.182-17.787 6.811-4.798 4.631-7.441 10.853-7.441 17.521v40.287c-2.738-.425-5.552-.448-8.356-.024-13.36 2.018-23.435 13.916-23.435 27.677v84.297c0 35.415 23.378 65.47 55.512 75.551l.267 60.136c.019 4.131 3.373 7.467 7.5 7.467h.034c4.142-.019 7.485-3.391 7.467-7.533l-.253-56.939c2.838.309 5.717.48 8.636.48h22.301c4.142 0 7.5-3.358 7.5-7.5s-3.358-7.5-7.5-7.5h-22.301c-35.379 0-64.162-28.783-64.162-64.162v-84.297c0-6.404 4.589-11.926 10.675-12.845 3.629-.55 7.302.509 10.079 2.9 2.777 2.393 4.368 5.867 4.363 9.536l-.035 56.662c-.002 3.19 2.014 6.032 5.026 7.084l4.16 1.454c17.788 6.214 32.181 19.744 39.489 37.12 1.606 3.818 6.002 5.611 9.821 4.006 3.818-1.606 5.612-6.003 4.006-9.821-8.832-20.997-26.113-37.41-47.499-45.156l.032-51.335c.009-7.482-3.014-14.599-8.342-19.782l.016-47.762c0-2.56 1.015-4.949 2.857-6.727 1.841-1.776 4.275-2.7 6.837-2.614 4.962.177 8.999 4.548 8.999 9.744v103.292c0 4.142 3.358 7.5 7.5 7.5s7.5-3.358 7.5-7.5c0 0 0-94.164 0-94.678 0-2.56 1.015-4.949 2.857-6.727 1.841-1.776 4.271-2.695 6.837-2.614 4.962.176 8.999 4.547 8.999 9.744v94.274c0 4.142 3.358 7.5 7.5 7.5s7.5-3.358 7.5-7.5c0 0 0-85.122 0-85.636 0-5.154 4.193-9.347 9.347-9.347s9.347 4.193 9.347 9.347v85.636c0 4.142 3.358 7.5 7.5 7.5s7.5-3.358 7.5-7.5c0 0 0-67.015 0-67.528 0-2.56 1.015-4.949 2.857-6.727 1.841-1.776 4.273-2.699 6.837-2.614 4.962.176 8.999 4.548 8.999 9.825l.56 52.301c-1.665.974-3.229 2.151-4.656 3.527-4.798 4.631-7.441 10.853-7.441 17.521v40.287c-2.738-.425-5.552-.448-8.355-.025-13.36 2.018-23.436 13.916-23.436 27.677v84.297c.001 23.238 10.068 44.168 26.068 58.662z"/><path d="m122.556 390.664c-.011 0-.022 0-.034 0-4.142.019-7.485 3.391-7.467 7.533l.472 106.336c.019 4.131 3.373 7.467 7.5 7.467h.034c4.142-.019 7.485-3.391 7.467-7.533l-.472-106.336c-.019-4.131-3.373-7.467-7.5-7.467z"/><path d="m364.879 313.618c-.042-4.142-3.39-7.455-7.577-7.422-4.142.043-7.465 3.435-7.422 7.577l.353 34.103c.208 20.179-5.833 39.558-17.473 56.042-.9 1.275-1.38 2.799-1.374 4.36l.436 96.256c.019 4.13 3.373 7.466 7.499 7.466h.035c4.142-.019 7.484-3.392 7.466-7.534l-.425-93.901c12.563-18.632 19.067-40.308 18.834-62.844z"/></g></g></g></svg>